<svg xmlns="http://www.w3.org/2000/svg" width="40" height="80" viewBox="0 0 40 80"><title>MENUBTN</title><rect x="7.3" y="6.1" width="25.1" height="5.71" rx="1.5" ry="1.5" fill="#17495c"/><path d="M36.7,66.2,21.1,50.6a1.6,1.6,0,0,0-2.2,0L3.3,66.2a1.5,1.5,0,0,0,0,2.1l1.9,1.9a1.5,1.5,0,0,0,2.1,0L20,57.6,32.7,70.2a1.5,1.5,0,0,0,2.1,0l1.9-1.9A1.5,1.5,0,0,0,36.7,66.2Z" fill="#17495c"/><rect x="7.3" y="15.5" width="25.1" height="5.71" rx="1.5" ry="1.5" fill="#17495c"/><rect x="7.3" y="24.8" width="25.1" height="5.71" rx="1.5" ry="1.5" fill="#17495c"/></svg>